solid CATIA STL
  facet normal  0.000000e+000  0.000000e+000  1.000000e+000
    outer loop
      vertex  2.705642e+001  5.505728e+000  5.000000e-001
      vertex  1.824621e+001  4.487237e+000  5.000000e-001
      vertex  2.705642e+001  4.505728e+000  5.000000e-001
    endloop
  endfacet
  facet normal  -0.000000e+000  0.000000e+000  1.000000e+000
    outer loop
      vertex  0.000000e+000  5.505728e+000  5.000000e-001
      vertex  0.000000e+000  4.505728e+000  5.000000e-001
      vertex  9.227408e+000  4.487237e+000  5.000000e-001
    endloop
  endfacet
  facet normal  0.000000e+000  0.000000e+000  1.000000e+000
    outer loop
      vertex  9.227408e+000  4.487237e+000  5.000000e-001
      vertex  0.000000e+000  4.505728e+000  5.000000e-001
      vertex  9.227408e+000  3.487237e+000  5.000000e-001
    endloop
  endfacet
  facet normal  0.000000e+000  0.000000e+000  1.000000e+000
    outer loop
      vertex  9.227408e+000  4.487237e+000  5.000000e-001
      vertex  9.227408e+000  3.487237e+000  5.000000e-001
      vertex  1.824621e+001  4.487237e+000  5.000000e-001
    endloop
  endfacet
  facet normal  0.000000e+000  0.000000e+000  1.000000e+000
    outer loop
      vertex  1.824621e+001  4.487237e+000  5.000000e-001
      vertex  9.227408e+000  3.487237e+000  5.000000e-001
      vertex  1.824621e+001  3.487237e+000  5.000000e-001
    endloop
  endfacet
  facet normal  0.000000e+000  0.000000e+000  1.000000e+000
    outer loop
      vertex  1.824621e+001  4.487237e+000  5.000000e-001
      vertex  1.824621e+001  3.487237e+000  5.000000e-001
      vertex  2.705642e+001  4.505728e+000  5.000000e-001
    endloop
  endfacet
  facet normal  0.000000e+000  0.000000e+000  1.000000e+000
    outer loop
      vertex  8.000000e+001  2.703164e+001  5.000000e-001
      vertex  8.000000e+001  2.803164e+001  5.000000e-001
      vertex  7.443980e+001  2.647467e+001  5.000000e-001
    endloop
  endfacet
  facet normal  0.000000e+000  0.000000e+000  1.000000e+000
    outer loop
      vertex  7.443980e+001  2.647467e+001  5.000000e-001
      vertex  8.000000e+001  2.803164e+001  5.000000e-001
      vertex  7.443980e+001  2.747467e+001  5.000000e-001
    endloop
  endfacet
  facet normal  0.000000e+000  0.000000e+000  9.999999e-001
    outer loop
      vertex  7.443980e+001  2.647467e+001  5.000000e-001
      vertex  7.443980e+001  2.747467e+001  5.000000e-001
      vertex  6.910056e+001  2.582586e+001  5.000000e-001
    endloop
  endfacet
  facet normal  0.000000e+000  0.000000e+000  1.000000e+000
    outer loop
      vertex  2.705642e+001  5.505728e+000  5.000000e-001
      vertex  2.705642e+001  4.505728e+000  5.000000e-001
      vertex  3.557850e+001  7.518930e+000  5.000000e-001
    endloop
  endfacet
  facet normal  0.000000e+000  0.000000e+000  1.000000e+000
    outer loop
      vertex  3.557850e+001  7.518930e+000  5.000000e-001
      vertex  2.705642e+001  4.505728e+000  5.000000e-001
      vertex  3.557850e+001  6.518930e+000  5.000000e-001
    endloop
  endfacet
  facet normal  0.000000e+000  0.000000e+000  1.000000e+000
    outer loop
      vertex  3.557850e+001  7.518930e+000  5.000000e-001
      vertex  3.557850e+001  6.518930e+000  5.000000e-001
      vertex  4.389587e+001  1.053165e+001  5.000000e-001
    endloop
  endfacet
  facet normal  0.000000e+000  0.000000e+000  1.000000e+000
    outer loop
      vertex  4.389587e+001  1.053165e+001  5.000000e-001
      vertex  3.557850e+001  6.518930e+000  5.000000e-001
      vertex  4.389587e+001  9.531654e+000  5.000000e-001
    endloop
  endfacet
  facet normal  0.000000e+000  0.000000e+000  1.000000e+000
    outer loop
      vertex  4.389587e+001  1.053165e+001  5.000000e-001
      vertex  4.389587e+001  9.531654e+000  5.000000e-001
      vertex  5.200852e+001  1.454390e+001  5.000000e-001
    endloop
  endfacet
  facet normal  0.000000e+000  0.000000e+000  1.000000e+000
    outer loop
      vertex  5.200852e+001  1.454390e+001  5.000000e-001
      vertex  4.389587e+001  9.531654e+000  5.000000e-001
      vertex  5.200852e+001  1.354390e+001  5.000000e-001
    endloop
  endfacet
  facet normal  0.000000e+000  0.000000e+000  1.000000e+000
    outer loop
      vertex  5.200852e+001  1.454390e+001  5.000000e-001
      vertex  5.200852e+001  1.354390e+001  5.000000e-001
      vertex  5.991645e+001  1.955567e+001  5.000000e-001
    endloop
  endfacet
  facet normal  0.000000e+000  0.000000e+000  1.000000e+000
    outer loop
      vertex  5.991645e+001  1.955567e+001  5.000000e-001
      vertex  5.200852e+001  1.354390e+001  5.000000e-001
      vertex  5.991645e+001  1.855567e+001  5.000000e-001
    endloop
  endfacet
  facet normal  0.000000e+000  0.000000e+000  1.000000e+000
    outer loop
      vertex  5.991645e+001  1.955567e+001  5.000000e-001
      vertex  5.991645e+001  1.855567e+001  5.000000e-001
      vertex  6.419445e+001  2.315076e+001  5.000000e-001
    endloop
  endfacet
  facet normal  0.000000e+000  0.000000e+000  1.000000e+000
    outer loop
      vertex  6.419445e+001  2.315076e+001  5.000000e-001
      vertex  5.991645e+001  1.855567e+001  5.000000e-001
      vertex  6.419445e+001  2.215076e+001  5.000000e-001
    endloop
  endfacet
  facet normal  0.000000e+000  0.000000e+000  1.000000e+000
    outer loop
      vertex  6.419445e+001  2.315076e+001  5.000000e-001
      vertex  6.419445e+001  2.215076e+001  5.000000e-001
      vertex  6.910056e+001  2.582586e+001  5.000000e-001
    endloop
  endfacet
  facet normal  0.000000e+000  0.000000e+000  1.000000e+000
    outer loop
      vertex  6.910056e+001  2.582586e+001  5.000000e-001
      vertex  6.419445e+001  2.215076e+001  5.000000e-001
      vertex  6.910056e+001  2.482586e+001  5.000000e-001
    endloop
  endfacet
  facet normal  0.000000e+000  0.000000e+000  9.999999e-001
    outer loop
      vertex  6.910056e+001  2.582586e+001  5.000000e-001
      vertex  6.910056e+001  2.482586e+001  5.000000e-001
      vertex  7.443980e+001  2.647467e+001  5.000000e-001
    endloop
  endfacet
  facet normal  0.000000e+000  0.000000e+000 -1.000000e+000
    outer loop
      vertex  2.705642e+001  4.505728e+000 -5.000000e-001
      vertex  1.824621e+001  4.487237e+000 -5.000000e-001
      vertex  2.705642e+001  5.505728e+000 -5.000000e-001
    endloop
  endfacet
  facet normal  0.000000e+000  0.000000e+000 -1.000000e+000
    outer loop
      vertex  2.705642e+001  4.505728e+000 -5.000000e-001
      vertex  1.824621e+001  3.487237e+000 -5.000000e-001
      vertex  1.824621e+001  4.487237e+000 -5.000000e-001
    endloop
  endfacet
  facet normal  0.000000e+000  -0.000000e+000 -1.000000e+000
    outer loop
      vertex  1.824621e+001  4.487237e+000 -5.000000e-001
      vertex  1.824621e+001  3.487237e+000 -5.000000e-001
      vertex  9.227408e+000  3.487237e+000 -5.000000e-001
    endloop
  endfacet
  facet normal  0.000000e+000  0.000000e+000 -1.000000e+000
    outer loop
      vertex  1.824621e+001  4.487237e+000 -5.000000e-001
      vertex  9.227408e+000  3.487237e+000 -5.000000e-001
      vertex  9.227408e+000  4.487237e+000 -5.000000e-001
    endloop
  endfacet
  facet normal  -0.000000e+000  -0.000000e+000 -1.000000e+000
    outer loop
      vertex  9.227408e+000  4.487237e+000 -5.000000e-001
      vertex  9.227408e+000  3.487237e+000 -5.000000e-001
      vertex  0.000000e+000  4.505728e+000 -5.000000e-001
    endloop
  endfacet
  facet normal  0.000000e+000  0.000000e+000 -1.000000e+000
    outer loop
      vertex  9.227408e+000  4.487237e+000 -5.000000e-001
      vertex  0.000000e+000  4.505728e+000 -5.000000e-001
      vertex  0.000000e+000  5.505728e+000 -5.000000e-001
    endloop
  endfacet
  facet normal  0.000000e+000  -0.000000e+000 -9.999999e-001
    outer loop
      vertex  6.910056e+001  2.582586e+001 -5.000000e-001
      vertex  7.443980e+001  2.747467e+001 -5.000000e-001
      vertex  7.443980e+001  2.647467e+001 -5.000000e-001
    endloop
  endfacet
  facet normal  0.000000e+000  0.000000e+000 -1.000000e+000
    outer loop
      vertex  7.443980e+001  2.647467e+001 -5.000000e-001
      vertex  7.443980e+001  2.747467e+001 -5.000000e-001
      vertex  8.000000e+001  2.803164e+001 -5.000000e-001
    endloop
  endfacet
  facet normal  0.000000e+000  -0.000000e+000 -1.000000e+000
    outer loop
      vertex  7.443980e+001  2.647467e+001 -5.000000e-001
      vertex  8.000000e+001  2.803164e+001 -5.000000e-001
      vertex  8.000000e+001  2.703164e+001 -5.000000e-001
    endloop
  endfacet
  facet normal  0.000000e+000  0.000000e+000 -9.999999e-001
    outer loop
      vertex  7.443980e+001  2.647467e+001 -5.000000e-001
      vertex  6.910056e+001  2.482586e+001 -5.000000e-001
      vertex  6.910056e+001  2.582586e+001 -5.000000e-001
    endloop
  endfacet
  facet normal  0.000000e+000  -0.000000e+000 -1.000000e+000
    outer loop
      vertex  6.910056e+001  2.582586e+001 -5.000000e-001
      vertex  6.910056e+001  2.482586e+001 -5.000000e-001
      vertex  6.419445e+001  2.215076e+001 -5.000000e-001
    endloop
  endfacet
  facet normal  0.000000e+000  0.000000e+000 -1.000000e+000
    outer loop
      vertex  6.910056e+001  2.582586e+001 -5.000000e-001
      vertex  6.419445e+001  2.215076e+001 -5.000000e-001
      vertex  6.419445e+001  2.315076e+001 -5.000000e-001
    endloop
  endfacet
  facet normal  0.000000e+000  -0.000000e+000 -1.000000e+000
    outer loop
      vertex  6.419445e+001  2.315076e+001 -5.000000e-001
      vertex  6.419445e+001  2.215076e+001 -5.000000e-001
      vertex  5.991645e+001  1.855567e+001 -5.000000e-001
    endloop
  endfacet
  facet normal  0.000000e+000  0.000000e+000 -1.000000e+000
    outer loop
      vertex  6.419445e+001  2.315076e+001 -5.000000e-001
      vertex  5.991645e+001  1.855567e+001 -5.000000e-001
      vertex  5.991645e+001  1.955567e+001 -5.000000e-001
    endloop
  endfacet
  facet normal  0.000000e+000  -0.000000e+000 -1.000000e+000
    outer loop
      vertex  5.991645e+001  1.955567e+001 -5.000000e-001
      vertex  5.991645e+001  1.855567e+001 -5.000000e-001
      vertex  5.200852e+001  1.354390e+001 -5.000000e-001
    endloop
  endfacet
  facet normal  0.000000e+000  0.000000e+000 -1.000000e+000
    outer loop
      vertex  5.991645e+001  1.955567e+001 -5.000000e-001
      vertex  5.200852e+001  1.354390e+001 -5.000000e-001
      vertex  5.200852e+001  1.454390e+001 -5.000000e-001
    endloop
  endfacet
  facet normal  0.000000e+000  -0.000000e+000 -1.000000e+000
    outer loop
      vertex  5.200852e+001  1.454390e+001 -5.000000e-001
      vertex  5.200852e+001  1.354390e+001 -5.000000e-001
      vertex  4.389587e+001  9.531654e+000 -5.000000e-001
    endloop
  endfacet
  facet normal  0.000000e+000  0.000000e+000 -1.000000e+000
    outer loop
      vertex  5.200852e+001  1.454390e+001 -5.000000e-001
      vertex  4.389587e+001  9.531654e+000 -5.000000e-001
      vertex  4.389587e+001  1.053165e+001 -5.000000e-001
    endloop
  endfacet
  facet normal  0.000000e+000  -0.000000e+000 -1.000000e+000
    outer loop
      vertex  4.389587e+001  1.053165e+001 -5.000000e-001
      vertex  4.389587e+001  9.531654e+000 -5.000000e-001
      vertex  3.557850e+001  6.518930e+000 -5.000000e-001
    endloop
  endfacet
  facet normal  0.000000e+000  0.000000e+000 -1.000000e+000
    outer loop
      vertex  4.389587e+001  1.053165e+001 -5.000000e-001
      vertex  3.557850e+001  6.518930e+000 -5.000000e-001
      vertex  3.557850e+001  7.518930e+000 -5.000000e-001
    endloop
  endfacet
  facet normal  0.000000e+000  -0.000000e+000 -1.000000e+000
    outer loop
      vertex  3.557850e+001  7.518930e+000 -5.000000e-001
      vertex  3.557850e+001  6.518930e+000 -5.000000e-001
      vertex  2.705642e+001  4.505728e+000 -5.000000e-001
    endloop
  endfacet
  facet normal  0.000000e+000  0.000000e+000 -1.000000e+000
    outer loop
      vertex  3.557850e+001  7.518930e+000 -5.000000e-001
      vertex  2.705642e+001  4.505728e+000 -5.000000e-001
      vertex  2.705642e+001  5.505728e+000 -5.000000e-001
    endloop
  endfacet
  facet normal  1.000000e+000  0.000000e+000  0.000000e+000
    outer loop
      vertex  8.000000e+001  2.803164e+001 -5.000000e-001
      vertex  8.000000e+001  2.803164e+001  5.000000e-001
      vertex  8.000000e+001  2.703164e+001 -5.000000e-001
    endloop
  endfacet
  facet normal  1.000000e+000  0.000000e+000  0.000000e+000
    outer loop
      vertex  8.000000e+001  2.703164e+001 -5.000000e-001
      vertex  8.000000e+001  2.803164e+001  5.000000e-001
      vertex  8.000000e+001  2.703164e+001  5.000000e-001
    endloop
  endfacet
  facet normal  4.787204e-001 -8.779674e-001  0.000000e+000
    outer loop
      vertex  6.910056e+001  2.482586e+001 -5.000000e-001
      vertex  6.419445e+001  2.215076e+001  5.000000e-001
      vertex  6.419445e+001  2.215076e+001 -5.000000e-001
    endloop
  endfacet
  facet normal  6.433572e-001 -7.655662e-001  0.000000e+000
    outer loop
      vertex  6.419445e+001  2.215076e+001 -5.000000e-001
      vertex  6.419445e+001  2.215076e+001  5.000000e-001
      vertex  5.991645e+001  1.855567e+001  5.000000e-001
    endloop
  endfacet
  facet normal  6.433572e-001 -7.655662e-001  0.000000e+000
    outer loop
      vertex  6.419445e+001  2.215076e+001 -5.000000e-001
      vertex  5.991645e+001  1.855567e+001  5.000000e-001
      vertex  5.991645e+001  1.855567e+001 -5.000000e-001
    endloop
  endfacet
  facet normal  4.787204e-001 -8.779674e-001  0.000000e+000
    outer loop
      vertex  6.419445e+001  2.215076e+001  5.000000e-001
      vertex  6.910056e+001  2.482586e+001 -5.000000e-001
      vertex  6.910056e+001  2.482586e+001  5.000000e-001
    endloop
  endfacet
  facet normal  2.950598e-001 -9.554788e-001  0.000000e+000
    outer loop
      vertex  6.910056e+001  2.482586e+001  5.000000e-001
      vertex  6.910056e+001  2.482586e+001 -5.000000e-001
      vertex  7.443980e+001  2.647467e+001 -5.000000e-001
    endloop
  endfacet
  facet normal  2.950598e-001 -9.554788e-001  0.000000e+000
    outer loop
      vertex  6.910056e+001  2.482586e+001  5.000000e-001
      vertex  7.443980e+001  2.647467e+001 -5.000000e-001
      vertex  7.443980e+001  2.647467e+001  5.000000e-001
    endloop
  endfacet
  facet normal  9.967344e-002 -9.950202e-001  0.000000e+000
    outer loop
      vertex  7.443980e+001  2.647467e+001  5.000000e-001
      vertex  7.443980e+001  2.647467e+001 -5.000000e-001
      vertex  8.000000e+001  2.703164e+001 -5.000000e-001
    endloop
  endfacet
  facet normal  9.967344e-002 -9.950202e-001  0.000000e+000
    outer loop
      vertex  7.443980e+001  2.647467e+001  5.000000e-001
      vertex  8.000000e+001  2.703164e+001 -5.000000e-001
      vertex  8.000000e+001  2.703164e+001  5.000000e-001
    endloop
  endfacet
  facet normal  5.353122e-001 -8.446543e-001  0.000000e+000
    outer loop
      vertex  5.991645e+001  1.855567e+001 -5.000000e-001
      vertex  5.991645e+001  1.855567e+001  5.000000e-001
      vertex  5.200852e+001  1.354390e+001 -5.000000e-001
    endloop
  endfacet
  facet normal  5.353122e-001 -8.446543e-001  0.000000e+000
    outer loop
      vertex  5.200852e+001  1.354390e+001 -5.000000e-001
      vertex  5.991645e+001  1.855567e+001  5.000000e-001
      vertex  5.200852e+001  1.354390e+001  5.000000e-001
    endloop
  endfacet
  facet normal  4.433129e-001 -8.963669e-001  0.000000e+000
    outer loop
      vertex  5.200852e+001  1.354390e+001 -5.000000e-001
      vertex  5.200852e+001  1.354390e+001  5.000000e-001
      vertex  4.389587e+001  9.531654e+000 -5.000000e-001
    endloop
  endfacet
  facet normal  4.433129e-001 -8.963669e-001  0.000000e+000
    outer loop
      vertex  4.389587e+001  9.531654e+000 -5.000000e-001
      vertex  5.200852e+001  1.354390e+001  5.000000e-001
      vertex  4.389587e+001  9.531654e+000  5.000000e-001
    endloop
  endfacet
  facet normal  3.405675e-001 -9.402201e-001  0.000000e+000
    outer loop
      vertex  4.389587e+001  9.531654e+000 -5.000000e-001
      vertex  4.389587e+001  9.531654e+000  5.000000e-001
      vertex  3.557850e+001  6.518930e+000 -5.000000e-001
    endloop
  endfacet
  facet normal  3.405675e-001 -9.402201e-001  0.000000e+000
    outer loop
      vertex  3.557850e+001  6.518930e+000 -5.000000e-001
      vertex  4.389587e+001  9.531654e+000  5.000000e-001
      vertex  3.557850e+001  6.518930e+000  5.000000e-001
    endloop
  endfacet
  facet normal  2.299055e-001 -9.732130e-001  0.000000e+000
    outer loop
      vertex  3.557850e+001  6.518930e+000 -5.000000e-001
      vertex  3.557850e+001  6.518930e+000  5.000000e-001
      vertex  2.705642e+001  4.505728e+000 -5.000000e-001
    endloop
  endfacet
  facet normal  2.299055e-001 -9.732130e-001  0.000000e+000
    outer loop
      vertex  2.705642e+001  4.505728e+000 -5.000000e-001
      vertex  3.557850e+001  6.518930e+000  5.000000e-001
      vertex  2.705642e+001  4.505728e+000  5.000000e-001
    endloop
  endfacet
  facet normal  1.148387e-001 -9.933842e-001  0.000000e+000
    outer loop
      vertex  2.705642e+001  4.505728e+000 -5.000000e-001
      vertex  2.705642e+001  4.505728e+000  5.000000e-001
      vertex  1.824621e+001  3.487237e+000 -5.000000e-001
    endloop
  endfacet
  facet normal  1.148387e-001 -9.933842e-001  0.000000e+000
    outer loop
      vertex  1.824621e+001  3.487237e+000 -5.000000e-001
      vertex  2.705642e+001  4.505728e+000  5.000000e-001
      vertex  1.824621e+001  3.487237e+000  5.000000e-001
    endloop
  endfacet
  facet normal  0.000000e+000 -1.000000e+000  -0.000000e+000
    outer loop
      vertex  1.824621e+001  3.487237e+000 -5.000000e-001
      vertex  1.824621e+001  3.487237e+000  5.000000e-001
      vertex  9.227408e+000  3.487237e+000 -5.000000e-001
    endloop
  endfacet
  facet normal  0.000000e+000 -1.000000e+000  0.000000e+000
    outer loop
      vertex  9.227408e+000  3.487237e+000 -5.000000e-001
      vertex  1.824621e+001  3.487237e+000  5.000000e-001
      vertex  9.227408e+000  3.487237e+000  5.000000e-001
    endloop
  endfacet
  facet normal -1.097104e-001 -9.939636e-001  -0.000000e+000
    outer loop
      vertex  9.227408e+000  3.487237e+000 -5.000000e-001
      vertex  9.227408e+000  3.487237e+000  5.000000e-001
      vertex  0.000000e+000  4.505728e+000 -5.000000e-001
    endloop
  endfacet
  facet normal -1.097104e-001 -9.939636e-001  0.000000e+000
    outer loop
      vertex  0.000000e+000  4.505728e+000 -5.000000e-001
      vertex  9.227408e+000  3.487237e+000  5.000000e-001
      vertex  0.000000e+000  4.505728e+000  5.000000e-001
    endloop
  endfacet
  facet normal -1.000000e+000  0.000000e+000  0.000000e+000
    outer loop
      vertex  0.000000e+000  5.505728e+000 -5.000000e-001
      vertex  0.000000e+000  4.505728e+000 -5.000000e-001
      vertex  0.000000e+000  5.505728e+000  5.000000e-001
    endloop
  endfacet
  facet normal -1.000000e+000  -0.000000e+000  0.000000e+000
    outer loop
      vertex  0.000000e+000  5.505728e+000  5.000000e-001
      vertex  0.000000e+000  4.505728e+000 -5.000000e-001
      vertex  0.000000e+000  4.505728e+000  5.000000e-001
    endloop
  endfacet
  facet normal -3.405675e-001  9.402201e-001  0.000000e+000
    outer loop
      vertex  3.557850e+001  7.518930e+000 -5.000000e-001
      vertex  4.389587e+001  1.053165e+001  5.000000e-001
      vertex  4.389587e+001  1.053165e+001 -5.000000e-001
    endloop
  endfacet
  facet normal -4.433129e-001  8.963669e-001  0.000000e+000
    outer loop
      vertex  4.389587e+001  1.053165e+001 -5.000000e-001
      vertex  4.389587e+001  1.053165e+001  5.000000e-001
      vertex  5.200852e+001  1.454390e+001  5.000000e-001
    endloop
  endfacet
  facet normal -4.433129e-001  8.963669e-001  0.000000e+000
    outer loop
      vertex  4.389587e+001  1.053165e+001 -5.000000e-001
      vertex  5.200852e+001  1.454390e+001  5.000000e-001
      vertex  5.200852e+001  1.454390e+001 -5.000000e-001
    endloop
  endfacet
  facet normal -5.353122e-001  8.446543e-001  0.000000e+000
    outer loop
      vertex  5.200852e+001  1.454390e+001 -5.000000e-001
      vertex  5.200852e+001  1.454390e+001  5.000000e-001
      vertex  5.991645e+001  1.955567e+001  5.000000e-001
    endloop
  endfacet
  facet normal -5.353122e-001  8.446543e-001  0.000000e+000
    outer loop
      vertex  5.200852e+001  1.454390e+001 -5.000000e-001
      vertex  5.991645e+001  1.955567e+001  5.000000e-001
      vertex  5.991645e+001  1.955567e+001 -5.000000e-001
    endloop
  endfacet
  facet normal -3.405675e-001  9.402201e-001  0.000000e+000
    outer loop
      vertex  4.389587e+001  1.053165e+001  5.000000e-001
      vertex  3.557850e+001  7.518930e+000 -5.000000e-001
      vertex  3.557850e+001  7.518930e+000  5.000000e-001
    endloop
  endfacet
  facet normal -2.299055e-001  9.732130e-001  0.000000e+000
    outer loop
      vertex  3.557850e+001  7.518930e+000  5.000000e-001
      vertex  3.557850e+001  7.518930e+000 -5.000000e-001
      vertex  2.705642e+001  5.505728e+000 -5.000000e-001
    endloop
  endfacet
  facet normal -2.299055e-001  9.732130e-001  0.000000e+000
    outer loop
      vertex  3.557850e+001  7.518930e+000  5.000000e-001
      vertex  2.705642e+001  5.505728e+000 -5.000000e-001
      vertex  2.705642e+001  5.505728e+000  5.000000e-001
    endloop
  endfacet
  facet normal -1.148388e-001  9.933842e-001  0.000000e+000
    outer loop
      vertex  2.705642e+001  5.505728e+000  5.000000e-001
      vertex  2.705642e+001  5.505728e+000 -5.000000e-001
      vertex  1.824621e+001  4.487237e+000 -5.000000e-001
    endloop
  endfacet
  facet normal -1.148388e-001  9.933842e-001  0.000000e+000
    outer loop
      vertex  2.705642e+001  5.505728e+000  5.000000e-001
      vertex  1.824621e+001  4.487237e+000 -5.000000e-001
      vertex  1.824621e+001  4.487237e+000  5.000000e-001
    endloop
  endfacet
  facet normal  0.000000e+000  1.000000e+000  0.000000e+000
    outer loop
      vertex  1.824621e+001  4.487237e+000  5.000000e-001
      vertex  1.824621e+001  4.487237e+000 -5.000000e-001
      vertex  9.227408e+000  4.487237e+000 -5.000000e-001
    endloop
  endfacet
  facet normal  0.000000e+000  1.000000e+000  0.000000e+000
    outer loop
      vertex  1.824621e+001  4.487237e+000  5.000000e-001
      vertex  9.227408e+000  4.487237e+000 -5.000000e-001
      vertex  9.227408e+000  4.487237e+000  5.000000e-001
    endloop
  endfacet
  facet normal  1.097104e-001  9.939636e-001  0.000000e+000
    outer loop
      vertex  9.227408e+000  4.487237e+000  5.000000e-001
      vertex  9.227408e+000  4.487237e+000 -5.000000e-001
      vertex  0.000000e+000  5.505728e+000 -5.000000e-001
    endloop
  endfacet
  facet normal  1.097104e-001  9.939636e-001  -0.000000e+000
    outer loop
      vertex  9.227408e+000  4.487237e+000  5.000000e-001
      vertex  0.000000e+000  5.505728e+000 -5.000000e-001
      vertex  0.000000e+000  5.505728e+000  5.000000e-001
    endloop
  endfacet
  facet normal -6.433572e-001  7.655662e-001  0.000000e+000
    outer loop
      vertex  5.991645e+001  1.955567e+001 -5.000000e-001
      vertex  5.991645e+001  1.955567e+001  5.000000e-001
      vertex  6.419445e+001  2.315076e+001 -5.000000e-001
    endloop
  endfacet
  facet normal -6.433572e-001  7.655662e-001  0.000000e+000
    outer loop
      vertex  6.419445e+001  2.315076e+001 -5.000000e-001
      vertex  5.991645e+001  1.955567e+001  5.000000e-001
      vertex  6.419445e+001  2.315076e+001  5.000000e-001
    endloop
  endfacet
  facet normal -4.787204e-001  8.779674e-001  0.000000e+000
    outer loop
      vertex  6.419445e+001  2.315076e+001 -5.000000e-001
      vertex  6.419445e+001  2.315076e+001  5.000000e-001
      vertex  6.910056e+001  2.582586e+001 -5.000000e-001
    endloop
  endfacet
  facet normal -4.787204e-001  8.779674e-001  0.000000e+000
    outer loop
      vertex  6.910056e+001  2.582586e+001 -5.000000e-001
      vertex  6.419445e+001  2.315076e+001  5.000000e-001
      vertex  6.910056e+001  2.582586e+001  5.000000e-001
    endloop
  endfacet
  facet normal -2.950598e-001  9.554788e-001  0.000000e+000
    outer loop
      vertex  6.910056e+001  2.582586e+001 -5.000000e-001
      vertex  6.910056e+001  2.582586e+001  5.000000e-001
      vertex  7.443980e+001  2.747467e+001 -5.000000e-001
    endloop
  endfacet
  facet normal -2.950598e-001  9.554788e-001  0.000000e+000
    outer loop
      vertex  7.443980e+001  2.747467e+001 -5.000000e-001
      vertex  6.910056e+001  2.582586e+001  5.000000e-001
      vertex  7.443980e+001  2.747467e+001  5.000000e-001
    endloop
  endfacet
  facet normal -9.967344e-002  9.950202e-001  0.000000e+000
    outer loop
      vertex  7.443980e+001  2.747467e+001 -5.000000e-001
      vertex  7.443980e+001  2.747467e+001  5.000000e-001
      vertex  8.000000e+001  2.803164e+001 -5.000000e-001
    endloop
  endfacet
  facet normal -9.967344e-002  9.950202e-001  0.000000e+000
    outer loop
      vertex  8.000000e+001  2.803164e+001 -5.000000e-001
      vertex  7.443980e+001  2.747467e+001  5.000000e-001
      vertex  8.000000e+001  2.803164e+001  5.000000e-001
    endloop
  endfacet
endsolid CATIA STL
